<svg width="134" height="124" viewBox="0 0 134 124" fill="none" xmlns="http://www.w3.org/2000/svg">
<path fill-rule="evenodd" clip-rule="evenodd" d="M67 96.8134L75.1024 104.23C80.0922 108.797 86.7087 111.569 94 111.569C109.464 111.569 122 99.0325 122 83.5685C122 71.2076 113.982 60.6881 102.831 56.9861L93.3408 53.8358L94.7274 43.9332C94.9066 42.6539 95 41.3412 95 40C95 24.536 82.464 12 67 12C51.536 12 39 24.536 39 40C39 41.3412 39.0935 42.6539 39.2726 43.9332L40.6592 53.8358L31.1692 56.9861C20.0176 60.6881 12 71.2076 12 83.5685C12 99.0325 24.536 111.569 40 111.569C47.2913 111.569 53.9078 108.797 58.8976 104.23L67 96.8134ZM106.611 45.5973C122.523 50.8794 134 65.8837 134 83.5685C134 105.66 116.091 123.569 94 123.569C83.5936 123.569 74.1154 119.595 67 113.082C59.8846 119.595 50.4064 123.569 40 123.569C17.9086 123.569 1.56562e-06 105.66 3.49691e-06 83.5685C5.04297e-06 65.8837 11.4767 50.8794 27.3885 45.5973C27.1324 43.7682 27 41.8996 27 40C27 17.9086 44.9086 -7.78862e-06 67 -5.85733e-06C89.0914 -3.92604e-06 107 17.9086 107 40C107 41.8996 106.868 43.7682 106.611 45.5973Z" fill="white"/>
</svg>
