<svg width="130" height="120" viewBox="0 0 130 120" fill="none" xmlns="http://www.w3.org/2000/svg">
<path fill-rule="evenodd" clip-rule="evenodd" d="M21.2894 60.8873L65 104.598L108.711 60.8873L108.933 60.6359L109.309 60.2773C114.678 55.1622 118 47.979 118 40C118 24.536 105.464 12 90 12C83.3667 12 77.3015 14.2916 72.5056 18.1361L65 24.1529L57.4944 18.1361C52.6985 14.2916 46.6333 12 40 12C24.536 12 12 24.536 12 40C12 47.979 15.3218 55.1622 20.6911 60.2773L21.0675 60.6359L21.2894 60.8873ZM12.414 68.9658C4.76615 61.68 0 51.3966 0 40C0 17.9086 17.9086 0 40 0C49.4595 0 58.152 3.28359 65 8.77314C71.848 3.28359 80.5405 0 90 0C112.091 0 130 17.9086 130 40C130 51.3966 125.234 61.6801 117.586 68.9658C117.503 69.0601 117.416 69.1525 117.326 69.2426L69.2426 117.326C66.8995 119.669 63.1005 119.669 60.7574 117.326L12.6741 69.2426C12.5839 69.1524 12.4972 69.0601 12.414 68.9658Z" fill="white"/>
</svg>
