<svg width="130" height="120" viewBox="0 0 130 120" fill="none" xmlns="http://www.w3.org/2000/svg">
<path fill-rule="evenodd" clip-rule="evenodd" d="M108.711 58.1959L65 14.4853L21.2894 58.1959L21.0675 58.4474L20.6911 58.8059C15.3218 63.921 12 71.1042 12 79.0832C12 94.5472 24.536 107.083 40 107.083C46.6333 107.083 52.6985 104.792 57.4944 100.947L65 94.9304L72.5056 100.947C77.3015 104.792 83.3667 107.083 90 107.083C105.464 107.083 118 94.5472 118 79.0833C118 71.1042 114.678 63.921 109.309 58.8059L108.932 58.4473L108.711 58.1959ZM117.586 50.1175C125.234 57.4032 130 67.6866 130 79.0833C130 101.175 112.091 119.083 90 119.083C80.5405 119.083 71.848 115.8 65 110.31C58.152 115.8 49.4595 119.083 40 119.083C17.9086 119.083 1.56562e-06 101.175 3.49691e-06 79.0832C4.49324e-06 67.6866 4.76616 57.4032 12.414 50.1175C12.4972 50.0231 12.5839 49.9308 12.6741 49.8406L60.7574 1.75735C63.1005 -0.585798 66.8995 -0.585798 69.2427 1.75735L117.326 49.8406C117.416 49.9308 117.503 50.0231 117.586 50.1175Z" fill="white"/>
</svg>
