<svg width="134" height="133" viewBox="0 0 134 133" fill="none" xmlns="http://www.w3.org/2000/svg">
<path fill-rule="evenodd" clip-rule="evenodd" d="M54.2721 127.38L6.18882 79.2965C-0.840618 72.267 -0.84061 60.8701 6.18883 53.8406L54.2721 5.75738C61.3015 -1.27206 72.6985 -1.27206 79.7279 5.75738L127.811 53.8406C134.841 60.8701 134.841 72.2671 127.811 79.2965L79.7279 127.38C72.6985 134.409 61.3015 134.409 54.2721 127.38ZM62.7574 118.894C65.1005 121.238 68.8995 121.238 71.2426 118.894L119.326 70.8112C121.669 68.4681 121.669 64.6691 119.326 62.3259L71.2427 14.2427C68.8995 11.8995 65.1005 11.8995 62.7574 14.2427L14.6741 62.3259C12.331 64.6691 12.331 68.468 14.6741 70.8112L62.7574 118.894Z" fill="white"/>
</svg>
